<mxfile host="app.diagrams.net" agent="Mozilla/5.0 (Windows NT 10.0; Win64; x64) AppleWebKit/537.36 (KHTML, like Gecko) Chrome/130.0.0.0 Safari/537.36" version="24.8.3">
  <diagram name="PÃ¡gina-1" id="2btHYQW1BNNcIbICIxtr">
    <mxGraphModel dx="3060" dy="366" grid="1" gridSize="10" guides="1" tooltips="1" connect="1" arrows="1" fold="1" page="1" pageScale="1" pageWidth="2336" pageHeight="1654" math="0" shadow="0">
      <root>
        <mxCell id="0" />
        <mxCell id="1" parent="0" />
        <mxCell id="a06R55uVEc1bWGK52brf-1" value="" style="rounded=0;whiteSpace=wrap;html=1;" parent="1" vertex="1">
          <mxGeometry x="-90" y="80" width="160" height="40" as="geometry" />
        </mxCell>
        <mxCell id="a06R55uVEc1bWGK52brf-2" value="Vehiculos_Residente" style="rounded=0;whiteSpace=wrap;html=1;" parent="1" vertex="1">
          <mxGeometry x="-90" y="20" width="160" height="60" as="geometry" />
        </mxCell>
        <mxCell id="a06R55uVEc1bWGK52brf-3" value="" style="rounded=0;whiteSpace=wrap;html=1;" parent="1" vertex="1">
          <mxGeometry x="-90" y="120" width="160" height="40" as="geometry" />
        </mxCell>
        <mxCell id="a06R55uVEc1bWGK52brf-5" value="" style="rounded=0;whiteSpace=wrap;html=1;" parent="1" vertex="1">
          <mxGeometry x="110" y="80" width="160" height="40" as="geometry" />
        </mxCell>
        <mxCell id="a06R55uVEc1bWGK52brf-6" value="Vehiculos_Visitante" style="rounded=0;whiteSpace=wrap;html=1;" parent="1" vertex="1">
          <mxGeometry x="110" y="20" width="160" height="60" as="geometry" />
        </mxCell>
        <mxCell id="a06R55uVEc1bWGK52brf-7" value="" style="rounded=0;whiteSpace=wrap;html=1;" parent="1" vertex="1">
          <mxGeometry x="110" y="120" width="160" height="40" as="geometry" />
        </mxCell>
        <mxCell id="a06R55uVEc1bWGK52brf-8" value="Residencia" style="rounded=0;whiteSpace=wrap;html=1;" parent="1" vertex="1">
          <mxGeometry x="840" y="200" width="160" height="60" as="geometry" />
        </mxCell>
        <mxCell id="AZbhT8LYtl2nTJzptcHp-1" value="Etapa1" style="rounded=0;whiteSpace=wrap;html=1;" vertex="1" parent="1">
          <mxGeometry x="520" y="100" width="160" height="60" as="geometry" />
        </mxCell>
        <mxCell id="AZbhT8LYtl2nTJzptcHp-2" value="Ciudadela" style="rounded=0;whiteSpace=wrap;html=1;" vertex="1" parent="1">
          <mxGeometry x="720" y="360" width="200" height="60" as="geometry" />
        </mxCell>
        <mxCell id="AZbhT8LYtl2nTJzptcHp-3" value="+ AgregarEtapa (e:Etapa): void&lt;div&gt;+ ObtenerEtapa (String): Etapa&lt;/div&gt;" style="rounded=0;whiteSpace=wrap;html=1;align=left;verticalAlign=top;" vertex="1" parent="1">
          <mxGeometry x="720" y="460" width="200" height="60" as="geometry" />
        </mxCell>
        <mxCell id="AZbhT8LYtl2nTJzptcHp-4" value="Menu&lt;div&gt;&amp;lt;&amp;lt;interface&amp;gt;&amp;gt;&lt;/div&gt;" style="rounded=0;whiteSpace=wrap;html=1;" vertex="1" parent="1">
          <mxGeometry x="400" y="470" width="160" height="50" as="geometry" />
        </mxCell>
        <mxCell id="AZbhT8LYtl2nTJzptcHp-5" value="" style="rounded=0;whiteSpace=wrap;html=1;" vertex="1" parent="1">
          <mxGeometry x="400" y="520" width="160" height="40" as="geometry" />
        </mxCell>
        <mxCell id="AZbhT8LYtl2nTJzptcHp-6" value="1_Etapa&lt;div&gt;2_Residencia_Etapa&lt;/div&gt;&lt;div&gt;3_Contactos_Residencia&lt;/div&gt;&lt;div&gt;4_Registro_Evento_&lt;/div&gt;&lt;div&gt;Residencia&lt;/div&gt;&lt;div style=&quot;&quot;&gt;5_Registro_Listado_&lt;/div&gt;&lt;div style=&quot;&quot;&gt;Visitantes_Evento&lt;/div&gt;&lt;div style=&quot;&quot;&gt;6_Registro_IngresoSalida_&lt;/div&gt;&lt;div style=&quot;&quot;&gt;Vehiculo_Residente&lt;/div&gt;&lt;div style=&quot;&quot;&gt;7_&amp;nbsp;&lt;span style=&quot;background-color: initial;&quot;&gt;Registro_IngresoSalida_&lt;/span&gt;&lt;/div&gt;&lt;div style=&quot;&quot;&gt;&lt;span style=&quot;background-color: initial;&quot;&gt;Vehiculo_Visitante&lt;/span&gt;&lt;/div&gt;&lt;div style=&quot;&quot;&gt;&lt;span style=&quot;background-color: initial;&quot;&gt;8_Mostrar_Listado_&lt;/span&gt;&lt;/div&gt;&lt;div style=&quot;&quot;&gt;&lt;span style=&quot;background-color: initial;&quot;&gt;Vehiculos_Residencia&lt;/span&gt;&lt;/div&gt;" style="rounded=0;whiteSpace=wrap;html=1;align=left;verticalAlign=top;" vertex="1" parent="1">
          <mxGeometry x="400" y="560" width="160" height="210" as="geometry" />
        </mxCell>
        <mxCell id="AZbhT8LYtl2nTJzptcHp-7" value="- Nombre : String&lt;div&gt;- Etapa : List&amp;lt;Etapa&amp;gt;&lt;/div&gt;" style="rounded=0;whiteSpace=wrap;html=1;align=left;verticalAlign=top;" vertex="1" parent="1">
          <mxGeometry x="720" y="420" width="200" height="40" as="geometry" />
        </mxCell>
        <mxCell id="AZbhT8LYtl2nTJzptcHp-8" value="Etapa" style="rounded=0;whiteSpace=wrap;html=1;" vertex="1" parent="1">
          <mxGeometry x="1000" y="340" width="200" height="60" as="geometry" />
        </mxCell>
        <mxCell id="AZbhT8LYtl2nTJzptcHp-9" value="- Nombre : String&lt;div&gt;- Residencias : List&amp;lt;Residencia&amp;gt;&lt;/div&gt;" style="rounded=0;whiteSpace=wrap;html=1;align=left;verticalAlign=top;" vertex="1" parent="1">
          <mxGeometry x="1000" y="400" width="200" height="40" as="geometry" />
        </mxCell>
        <mxCell id="AZbhT8LYtl2nTJzptcHp-10" value="Vehiculos" style="rounded=0;whiteSpace=wrap;html=1;" vertex="1" parent="1">
          <mxGeometry x="310" y="20" width="160" height="60" as="geometry" />
        </mxCell>
        <mxCell id="AZbhT8LYtl2nTJzptcHp-11" value="- Placa : String&lt;div&gt;- Propietario : String&lt;/div&gt;" style="rounded=0;whiteSpace=wrap;html=1;align=left;" vertex="1" parent="1">
          <mxGeometry x="310" y="80" width="160" height="40" as="geometry" />
        </mxCell>
        <mxCell id="AZbhT8LYtl2nTJzptcHp-12" value="" style="rounded=0;whiteSpace=wrap;html=1;" vertex="1" parent="1">
          <mxGeometry x="310" y="120" width="160" height="40" as="geometry" />
        </mxCell>
      </root>
    </mxGraphModel>
  </diagram>
</mxfile>
